<svg width="48" height="32" viewBox="0 0 48 32" fill="none" xmlns="http://www.w3.org/2000/svg">
<path d="M44.1205 13.474C44.1205 12.0767 44.3362 11.2515 44.3362 9.74723C44.3362 7.41772 43.4712 6.66669 41.5563 6.66669H40.1455V8.31503H40.5769C41.5541 8.31503 41.7698 8.63597 41.7698 9.81928C41.7698 10.9305 41.662 12.0418 41.662 13.3299C41.662 14.9783 42.2034 15.6223 43.2885 15.8734V15.9804C42.2034 16.2336 41.662 16.8777 41.662 18.526C41.662 19.8163 41.7698 20.8555 41.7698 22.0367C41.7698 23.2549 41.5189 23.5759 40.5769 23.5759V23.613H40.1455V25.3334H41.5563C43.4712 25.3334 44.3362 24.5823 44.3362 22.2528C44.3362 20.7114 44.1205 19.9233 44.1205 18.526C44.1205 17.7728 44.5893 16.9847 46.0001 16.9126V15.0503C44.5871 15.0154 44.1205 14.2272 44.1205 13.474ZM36.8594 15.6594C35.7743 15.2315 34.7641 14.9783 34.7641 14.2622C34.7641 13.7251 35.1977 13.3998 35.9922 13.3998C36.7868 13.3998 37.5087 13.7229 38.3033 14.2971L39.7493 12.3977C38.8491 11.7143 37.6187 10.9982 35.9548 10.9982C33.5007 10.9982 31.8367 12.3977 31.8367 14.3691C31.8367 16.1245 33.3906 17.0196 34.6936 17.5196C35.8117 17.9475 36.8968 18.3077 36.8968 19.0238C36.8968 19.5609 36.4632 19.9189 35.486 19.9189C34.5836 19.9189 33.679 19.5609 32.7061 18.8077L31.2601 20.8861C32.343 21.7812 34.0047 22.3904 35.3781 22.3904C38.268 22.3904 39.8219 20.8861 39.8219 18.9146C39.8197 16.9497 38.2658 16.1266 36.8594 15.6594ZM12.1863 19.7072C11.9354 19.7072 11.6096 19.4932 11.6096 18.812V6.66669H6.47694C4.52686 6.66669 3.66187 7.41772 3.66187 9.74723C3.66187 11.2886 3.87977 12.151 3.87977 13.474C3.87977 14.2272 3.41096 15.0154 2.00012 15.0874V16.9497C3.41096 16.9868 3.87977 17.775 3.87977 18.5282C3.87977 19.8512 3.66187 20.6416 3.66187 22.1829C3.66187 24.5125 4.52906 25.2635 6.44392 25.2635H7.85256V23.6151H7.41896C6.51435 23.6151 6.22602 23.2571 6.22602 22.0738C6.22602 20.8927 6.33387 19.8884 6.33387 18.5653C6.33387 16.9148 5.79463 16.2729 4.70954 16.0219V15.9105C5.79463 15.6616 6.33387 15.0176 6.33387 13.367C6.33387 12.0789 6.22602 11.0397 6.22602 9.85858C6.22602 8.67527 6.47694 8.35433 7.41896 8.35433H8.3918V18.6396C8.3918 20.825 9.15114 22.2572 11.3543 22.2572C12.0432 22.2572 12.5847 22.148 12.9809 22.0061L12.6177 19.6788C12.402 19.7072 12.2964 19.7072 12.1863 19.7072ZM28.1171 15.6594C26.9968 15.2315 25.9843 14.9783 25.9843 14.2622C25.9843 13.7251 26.4179 13.3998 27.2125 13.3998C28.007 13.3998 28.7289 13.7229 29.5257 14.2971L30.9696 12.3977C30.0672 11.7143 28.839 10.9982 27.1773 10.9982C24.7209 10.9982 23.057 12.3977 23.057 14.3691C23.057 16.1245 24.6131 17.0196 25.9117 17.5196C27.0342 17.9475 28.1171 18.3077 28.1171 19.0238C28.1171 19.5609 27.6835 19.9189 26.7062 19.9189C25.8038 19.9189 24.9014 19.5609 23.9242 18.8077L22.5156 20.8861C23.5984 21.7812 25.2602 22.3904 26.6336 22.3904C29.5235 22.3904 31.0774 20.8861 31.0774 18.9146C31.0796 16.9497 29.5257 16.1266 28.1171 15.6594ZM17.4599 10.9655C14.8231 10.9655 12.2942 13.1509 12.3668 16.5917C12.3668 20.1373 14.713 22.2157 17.823 22.2157C19.1238 22.2157 20.5677 21.7485 21.688 20.9974L20.6051 19.098C19.8127 19.5631 19.0512 19.7792 18.2588 19.7792C16.8128 19.7792 15.6947 19.098 15.4042 17.4519H21.9433C21.9807 17.2008 22.0511 16.6987 22.0511 16.1266C22.0864 13.2229 20.495 10.9655 17.4599 10.9655ZM15.402 15.4804C15.6199 14.0504 16.4848 13.3649 17.4951 13.3649C18.7981 13.3649 19.3021 14.2622 19.3021 15.4804H15.402Z" fill="#353A40"/>
</svg>
