<svg width="33" height="32" viewBox="0 0 33 32" fill="none" xmlns="http://www.w3.org/2000/svg">
<g clip-path="url(#clip0_1_282)">
<path d="M10.4835 27.2425L10.4125 27.1007C10.2707 26.817 10.2707 26.5332 10.3417 26.1785H2.68145L14.0302 6.03449L18.7827 14.617L20.343 13.482L15.5905 4.89949C15.5197 4.75774 14.9522 3.90674 14.0302 3.90674C13.6045 3.90674 12.9662 4.04849 12.4697 4.97074L0.9792 25.3275C0.9082 25.54 0.4117 26.4625 0.8372 27.2425C1.12095 27.668 1.54645 28.0937 2.5397 28.0937H12.1862C11.193 28.0937 10.6965 27.668 10.4837 27.2425H10.4835ZM32.3297 25.3982L23.109 8.80074C22.9672 8.65874 22.4705 7.73649 21.5485 7.73649C21.123 7.73649 20.4845 7.94949 19.988 8.80049L18.7822 10.7865V14.6167L21.5485 9.86424L30.6985 26.1782H27.2227C27.281 26.516 27.2314 26.8635 27.081 27.1715L27.01 27.2422C26.5845 28.0225 25.5205 28.0935 25.3785 28.0935H30.7692C30.982 28.0935 31.975 28.0225 32.4717 27.2422C32.6842 26.8877 32.8262 26.2492 32.3297 25.3982ZM27.2937 27.2425V27.1715L27.3647 27.0297C27.4355 26.746 27.5065 26.4622 27.4355 26.1785L27.152 25.3275L19.9167 12.702L18.853 10.787H18.782L17.718 12.702L10.4832 25.3275L10.1995 26.1785C10.1308 26.5392 10.1806 26.9124 10.3415 27.2425C10.6252 27.668 11.0507 28.0937 12.044 28.0937H25.5205C25.7332 28.0937 26.7972 28.0227 27.2937 27.2425ZM18.7822 14.6167L25.3787 26.1785H12.1857L18.7822 14.6167Z" fill="#353A40"/>
</g>
<defs>
<clipPath id="clip0_1_282">
<rect width="32" height="32" fill="white" transform="translate(0.666748)"/>
</clipPath>
</defs>
</svg>
