<svg width="43" height="32" viewBox="0 0 43 32" fill="none" xmlns="http://www.w3.org/2000/svg">
<g clip-path="url(#clip0_1_275)">
<path d="M36.7135 18.419C35.2291 18.4267 33.939 18.7842 32.8588 19.3127C32.4623 18.5277 32.066 17.8283 31.9961 17.3153C31.9183 16.717 31.8251 16.3517 31.9183 15.6367C32.0116 14.9217 32.4313 13.9035 32.4235 13.8258C32.4158 13.7482 32.3301 13.3828 31.4753 13.3752C30.6205 13.3673 29.8821 13.5383 29.7966 13.7637C29.7111 13.989 29.548 14.502 29.4391 15.0303C29.2915 15.8077 27.7295 18.582 26.8358 20.0353C26.5481 19.4682 26.2995 18.9707 26.245 18.5743C26.1673 17.976 26.074 17.6107 26.1673 16.8957C26.2606 16.1807 26.6803 15.1627 26.6725 15.0848C26.6646 15.0072 26.5791 14.6418 25.7243 14.6342C24.8693 14.6263 24.131 14.7973 24.0456 15.0227C23.9601 15.2482 23.8668 15.7765 23.6881 16.2895C23.5093 16.8025 21.4343 21.4345 20.8903 22.6312C20.6704 23.1155 20.4398 23.5949 20.1986 24.069C20.1986 24.069 20.1908 24.0923 20.1675 24.1312C20.0917 24.2798 20.014 24.4275 19.9345 24.5742V24.5818C19.8178 24.7918 19.6935 24.986 19.6313 24.986C19.5846 24.986 19.4991 24.4265 19.6468 23.6648C19.9576 22.0562 20.696 19.5537 20.6883 19.4682C20.6883 19.4215 20.8281 18.9863 20.2065 18.7608C19.6001 18.5355 19.3826 18.9085 19.3281 18.9085C19.2738 18.9085 19.2348 19.0407 19.2348 19.0407C19.2348 19.0407 19.9111 16.2273 17.9448 16.2273C16.717 16.2273 15.0226 17.5718 14.1833 18.7842C13.2291 19.3034 12.2758 19.8241 11.3233 20.3463C10.865 20.6028 10.3908 20.8593 9.94779 21.1002C9.91662 21.0692 9.88562 21.0302 9.85445 20.9992C7.47629 18.4578 3.07762 16.6625 3.26412 13.2508C3.33412 12.0073 3.76146 8.74317 11.712 4.77967C18.2556 1.55433 23.4628 2.448 24.3643 4.42983C25.6543 7.25883 21.5743 12.5125 14.8128 13.274C12.2326 13.5617 10.8803 12.5668 10.5385 12.1938C10.181 11.8052 10.1265 11.7818 9.99429 11.8597C9.77679 11.9763 9.91662 12.326 9.99429 12.528C10.1965 13.0563 11.028 13.989 12.4346 14.4477C13.6781 14.8517 16.7013 15.0772 20.3618 13.6627C24.4575 12.0772 27.6595 7.67067 26.7191 3.97917C25.7786 0.233167 19.5613 -1.0025 13.6781 1.088C10.181 2.33167 6.38829 4.29 3.66045 6.83917C0.419621 9.87 -0.0933794 12.5047 0.116454 13.6083C0.870454 17.5252 6.27179 20.0743 8.43229 21.9628C8.32345 22.025 8.22229 22.0795 8.13695 22.1262C7.05662 22.6623 2.93762 24.815 1.91179 27.0922C0.746121 29.6723 2.09845 31.5222 2.99212 31.7707C5.76662 32.5402 8.61879 31.1568 10.1498 28.8718C11.6808 26.587 11.4943 23.6182 10.7871 22.2582C10.7793 22.2427 10.7716 22.227 10.756 22.2115C11.0358 22.0483 11.3233 21.8773 11.6031 21.7142C12.1174 21.4101 12.6383 21.1173 13.1653 20.8358C12.901 21.5587 12.7066 22.4213 12.6135 23.6648C12.4968 25.126 13.0951 27.0222 13.8801 27.7682C14.23 28.0948 14.6418 28.1025 14.9061 28.1025C15.8231 28.1025 16.2351 27.3408 16.6936 26.4393C17.2531 25.3358 17.7583 24.0535 17.7583 24.0535C17.7583 24.0535 17.1288 27.5197 18.8386 27.5197C19.4603 27.5197 20.0898 26.7113 20.3696 26.2995V26.3072C20.3696 26.3072 20.3851 26.2838 20.4163 26.2295C20.4785 26.1285 20.5173 26.0662 20.5173 26.0662V26.0508C20.766 25.6155 21.3256 24.6285 22.1571 22.9887C23.2296 20.8748 24.2633 18.2325 24.2633 18.2325C24.2633 18.2325 24.3566 18.8775 24.6751 19.95C24.8618 20.5795 25.2501 21.2712 25.5611 21.9395C25.3125 22.2893 25.157 22.4835 25.157 22.4835L25.1648 22.4913C24.9626 22.7555 24.7451 23.043 24.5041 23.323C23.657 24.3332 22.6468 25.4913 22.5068 25.8253C22.3435 26.2217 22.3825 26.5093 22.6935 26.7425C22.9188 26.9135 23.3228 26.9367 23.7348 26.9135C24.4965 26.859 25.0326 26.6725 25.2968 26.556C25.7088 26.4083 26.1906 26.1828 26.6413 25.8487C27.473 25.2347 27.978 24.3565 27.9315 23.1987C27.9081 22.5613 27.6983 21.924 27.4418 21.3255C27.5196 21.2168 27.5895 21.108 27.6673 20.9992C28.9806 19.0795 29.9988 16.9733 29.9988 16.9733C29.9988 16.9733 30.0921 17.6183 30.4106 18.691C30.5661 19.235 30.8848 19.8257 31.1645 20.4007C29.9288 21.4033 29.1671 22.569 28.8951 23.3307C28.4056 24.7452 28.7863 25.3823 29.5091 25.53C29.8355 25.6 30.3018 25.4445 30.6438 25.2968C31.079 25.157 31.592 24.9162 32.0816 24.5585C32.9133 23.9447 33.7136 23.0897 33.667 21.9318C33.6436 21.4033 33.5038 20.8825 33.3095 20.3773C34.3586 19.9423 35.711 19.7013 37.4361 19.9033C41.1356 20.3385 41.8661 22.6467 41.7261 23.6183C41.5863 24.5897 40.8091 25.1182 40.5528 25.2813C40.2961 25.4447 40.2108 25.499 40.2341 25.6155C40.2651 25.7865 40.3895 25.7788 40.6071 25.7477C40.9103 25.6933 42.5501 24.9627 42.62 23.1752C42.7366 20.8903 40.5605 18.3957 36.7135 18.419ZM8.17579 28.0403C6.94779 29.377 5.23812 29.8822 4.49979 29.4548C3.70712 28.9962 4.01795 27.0222 5.52562 25.6078C6.44262 24.7452 7.62395 23.9445 8.40895 23.455C8.58762 23.3462 8.85195 23.1908 9.17062 22.9965C9.22495 22.9653 9.25612 22.9498 9.25612 22.9498L9.44262 22.8332C9.99429 24.8538 9.46595 26.6337 8.17579 28.0403ZM17.1133 21.9628C16.6858 23.0043 15.7921 25.67 15.2481 25.5223C14.7818 25.398 14.4941 23.3773 15.1548 21.38C15.489 20.3773 16.1961 19.1805 16.6081 18.7143C17.2765 17.9682 18.0148 17.7193 18.1935 18.0227C18.419 18.419 17.3775 21.31 17.1133 21.9628ZM24.4886 25.4912C24.3098 25.5845 24.139 25.6467 24.0611 25.6C24.0068 25.5688 24.139 25.4445 24.139 25.4445C24.139 25.4445 25.0638 24.4498 25.429 23.999C25.639 23.7348 25.8875 23.424 26.1518 23.0742V23.1752C26.1518 24.3643 25.0015 25.1648 24.4885 25.4912M30.1773 24.1933C30.0451 24.1 30.0685 23.7892 30.5115 22.8177C30.6825 22.4368 31.0865 21.7997 31.7783 21.1857C31.856 21.4343 31.9105 21.6753 31.9026 21.9007C31.8948 23.4007 30.8225 23.9602 30.1773 24.1933Z" fill="#353A40"/>
</g>
<defs>
<clipPath id="clip0_1_275">
<rect width="42.6667" height="32" fill="white"/>
</clipPath>
</defs>
</svg>
