<svg width="32" height="32" viewBox="0 0 32 32" fill="none" xmlns="http://www.w3.org/2000/svg">
<path d="M29.3332 7.8587C28.3346 8.29417 27.2754 8.58001 26.1909 8.70672C27.3206 8.0402 28.188 6.98474 28.5964 5.72717C27.5225 6.35451 26.3476 6.7965 25.1223 7.03407C24.1243 5.98742 22.7025 5.33331 21.1289 5.33331C18.1074 5.33331 15.6578 7.74468 15.6578 10.7188C15.6578 11.141 15.7062 11.5519 15.7994 11.9462C11.2525 11.7215 7.2213 9.5775 4.52286 6.31915C4.05202 7.11456 3.78223 8.03979 3.78223 9.02665C3.78223 10.8952 4.74817 12.5435 6.21609 13.5094C5.34728 13.4826 4.4976 13.2516 3.73796 12.8357C3.73765 12.8582 3.73765 12.8808 3.73765 12.9034C3.73765 15.5128 5.62348 17.6896 8.12619 18.1843C7.32055 18.4 6.47549 18.4316 5.65557 18.2766C6.35171 20.4162 8.37223 21.9732 10.7662 22.0168C8.8938 23.4612 6.53473 24.3222 3.97161 24.3222C3.52994 24.3222 3.09452 24.2967 2.6665 24.247C5.08765 25.775 7.96338 26.6666 11.053 26.6666C21.1162 26.6666 26.619 18.4602 26.619 11.3434C26.619 11.1098 26.6138 10.8775 26.6032 10.6466C27.6742 9.88439 28.5987 8.94033 29.3332 7.8587Z" fill="white"/>
</svg>
