<svg width="33" height="32" viewBox="0 0 33 32" fill="none" xmlns="http://www.w3.org/2000/svg">
<path d="M28.6876 24.161L17.1356 30.666V25.598L24.3336 21.655L28.6876 24.161ZM29.4796 23.448V9.83901L25.2506 12.271V21.016L29.4796 23.448ZM4.56763 24.161L16.1196 30.666V25.598L8.92163 21.655L4.56763 24.161ZM3.77563 23.448V9.83901L8.00463 12.271V21.016L3.77563 23.448ZM4.27063 8.95801L16.1196 2.28601V7.18701L8.47363 11.375L4.27063 8.95801ZM28.9846 8.95801L17.1356 2.28601V7.18701L24.7816 11.375L28.9846 8.95801ZM16.1196 24.448L9.02063 20.557V12.854L16.1196 16.937V24.448ZM17.1356 24.448L24.2346 20.557V12.854L17.1356 16.937V24.448ZM9.49963 11.964L16.6296 8.06301L23.7596 11.964L16.6296 16.063L9.49963 11.964Z" fill="#353A40"/>
</svg>
