<svg width="15" height="32" viewBox="0 0 15 32" fill="none" xmlns="http://www.w3.org/2000/svg">
<g clip-path="url(#clip0_1_279)">
<path d="M12.7174 24.4254C11.0615 25.0454 9.29687 25.3221 7.53072 25.2387L7.55738 25.24C5.7449 25.3119 3.93606 25.0251 2.23472 24.396L2.33072 24.4267L3.26805 25.9907L3.64405 30.9947C3.64405 31.2862 4.02983 31.5258 4.80138 31.7134C5.65667 31.9071 6.53109 32.0037 7.40805 32.0014L7.59738 32H7.58805L7.78672 32.0014C8.70272 32.0014 9.59472 31.8987 10.4507 31.7027L10.3707 31.7187C11.1423 31.5311 11.528 31.2916 11.528 31L11.84 25.996L12.7174 24.4254ZM1.27072 16.4254C1.49872 15.664 1.81872 14.9987 2.22538 14.3987L2.20938 14.424C2.59306 13.8244 3.12363 13.3329 3.75072 12.996L3.77338 12.9854C3.96372 12.9019 4.17099 12.8644 4.3785 12.8757C4.58601 12.887 4.78795 12.947 4.96805 13.0507L4.96138 13.0467C5.13301 13.1355 5.28178 13.2628 5.39605 13.4187L5.39872 13.4227C5.49205 13.524 5.55872 13.652 5.58538 13.7934L5.58672 13.7987C5.6098 13.8655 5.61875 13.9364 5.61301 14.0069C5.60728 14.0773 5.58697 14.1458 5.55338 14.208L5.55472 14.2054C5.53156 14.2522 5.49587 14.2917 5.45162 14.3194C5.40737 14.3472 5.35629 14.3622 5.30405 14.3627C5.19916 14.3627 5.06361 14.2169 4.89738 13.9254C4.64672 13.4667 4.29116 13.404 3.83072 13.7374C3.38596 14.0703 3.02411 14.5015 2.77338 14.9974L2.76405 15.0174C2.47738 15.5174 2.22405 16.0974 2.03472 16.7067L2.01738 16.7694C1.92359 17.0019 1.87603 17.2506 1.87738 17.5014C1.87738 17.6974 1.90538 17.8854 1.95872 18.064L1.95472 18.0507C1.98633 18.1079 2.03267 18.1556 2.08894 18.1889C2.1452 18.2222 2.20934 18.2399 2.27472 18.24C2.67072 18.1614 3.00672 17.9467 3.24138 17.6494L3.24405 17.6454C3.56272 17.344 3.84138 17.0054 4.07605 16.6347L4.08938 16.6134L4.40138 15.676C4.48494 15.468 4.61027 15.364 4.77738 15.364C4.94449 15.364 5.02805 15.4787 5.02805 15.708C5.00264 16.0499 4.91498 16.3843 4.76938 16.6947L4.77738 16.6774C4.63269 17.0233 4.51196 17.3788 4.41605 17.7414L4.40138 17.804L3.89738 19.4254C3.8571 19.548 3.80298 19.6656 3.73605 19.776L3.74005 19.768C3.72163 19.8105 3.69234 19.8475 3.65513 19.8751C3.61792 19.9027 3.57409 19.92 3.52805 19.9254H3.51605C3.48131 19.9254 3.44709 19.9169 3.4164 19.9006C3.38572 19.8844 3.35949 19.8608 3.34005 19.832C3.29035 19.7117 3.27962 19.5774 3.30938 19.4507L3.30805 19.4547C3.43346 18.8818 3.59966 18.3186 3.80538 17.7694L3.77738 17.8547L3.34005 18.292C3.00805 18.6654 2.54805 18.9187 2.03072 18.9854L2.02005 18.9867L1.97605 18.988C1.8139 18.9882 1.65479 18.9439 1.51605 18.86L1.52005 18.8627L2.02005 23.8027C2.06183 24.0107 2.60361 24.24 3.64538 24.4907C4.77872 24.7694 6.08005 24.928 7.41872 24.928H7.52805H7.52272H7.62672C8.96538 24.928 10.2667 24.768 11.5134 24.468L11.4014 24.4907C12.4023 24.24 12.9441 24.0107 13.0267 23.8027L13.7147 17.924L13.5894 17.9867C13.2881 18.3227 12.936 18.604 12.5427 18.8214L12.5227 18.832C12.2859 18.9369 12.0233 18.9694 11.7681 18.9254L11.776 18.9267C11.5227 18.8849 11.396 18.7596 11.396 18.5507C11.5267 18.104 11.7654 17.724 12.0827 17.4267L12.084 17.4254L12.2721 17.1134C12.4801 16.9054 12.584 16.7489 12.584 16.644C12.584 16.5391 12.5005 16.4974 12.3334 16.5187C12.1453 16.55 11.971 16.6373 11.8334 16.7694C11.6334 16.9534 11.4574 17.1587 11.3081 17.3827L11.3001 17.3947C11.0993 17.689 10.9257 18.001 10.7814 18.3267L10.7667 18.364L10.5161 18.864L9.90272 20.6134C9.82561 20.7314 9.71959 20.8278 9.59472 20.8934L9.59072 20.896C9.54425 20.9268 9.48976 20.9431 9.43405 20.9431C9.37834 20.9431 9.32385 20.9268 9.27738 20.896C9.24114 20.8719 9.21254 20.8395 9.19143 20.8015C9.17032 20.7634 9.15864 20.7208 9.15738 20.6774L9.22005 20.4894C9.38272 20.0174 9.55205 19.6254 9.74538 19.2467L9.72005 19.3014L10.1574 18.364C10.1992 18.1969 10.2201 18.1342 10.2201 18.176C9.97605 18.4427 9.68538 18.6627 9.36138 18.8254L9.34405 18.8334C9.14905 18.9321 8.92727 18.9648 8.71205 18.9267L8.71872 18.928C8.64241 18.9121 8.57235 18.8744 8.51699 18.8195C8.46163 18.7646 8.42333 18.6949 8.40672 18.6187V18.616L8.34405 18.4907C8.08138 18.7587 7.71738 18.9254 7.31338 18.928C7.04227 18.8862 6.97116 18.5738 7.10005 17.9907C6.86805 18.5374 6.34138 18.916 5.72538 18.928C5.61096 18.944 5.49309 18.9226 5.3919 18.8668C5.2907 18.811 5.2103 18.724 5.16272 18.6187L5.16138 18.6147C5.12196 18.1108 5.22842 17.6063 5.46805 17.1614L5.46138 17.176V17.1134C5.58672 16.8218 5.73249 16.4885 5.89872 16.1134C6.02405 15.8627 6.19072 15.7791 6.39872 15.8627H6.46138C6.58672 15.9462 6.60761 16.1129 6.52405 16.3627L6.33605 16.6134C6.18938 16.8867 6.04272 17.216 5.91738 17.5574L5.89872 17.6147C5.81516 17.9898 5.84627 18.1774 5.99205 18.1774C6.15815 18.1727 6.32081 18.1289 6.46672 18.0494L6.46138 18.052C6.74005 17.8494 6.96272 17.5867 7.11338 17.2827L7.11872 17.2707C7.26138 17.028 7.37872 16.7467 7.45738 16.4494L7.46272 16.4254L7.58805 16.1054C7.67161 15.8974 7.76538 15.7934 7.86938 15.7934C7.92219 15.7941 7.9743 15.8055 8.02262 15.8268C8.07095 15.8481 8.1145 15.8789 8.15072 15.9174C8.23427 16.0009 8.23427 16.1467 8.15072 16.3547L7.71338 17.3547C7.61093 17.5885 7.54786 17.8376 7.52672 18.092V18.1014C7.52672 18.2685 7.67249 18.2894 7.96405 18.164C8.13205 18.0987 8.27605 18.0147 8.40405 17.9107L8.40138 17.9134C8.44316 17.7462 8.77649 16.8498 9.40138 15.224L10.0267 13.66C10.0546 13.5693 10.1109 13.49 10.1872 13.4336C10.2635 13.3772 10.3558 13.3468 10.4507 13.3467H10.4654C10.5387 13.36 10.6014 13.3934 10.6521 13.4414C10.7356 13.5036 10.7565 13.6182 10.7147 13.7854L9.58538 16.4867C9.29383 17.2369 9.11605 17.7151 9.05205 17.9214C8.98805 18.1276 9.00049 18.2342 9.08938 18.2414C9.38094 18.2414 9.86049 17.8858 10.5281 17.1747L10.5907 17.112L10.7787 16.6747C10.8227 16.4587 10.9094 16.268 11.0307 16.104L11.028 16.108C11.1116 16.0245 11.1743 15.9827 11.216 15.9827C11.3832 15.9827 11.4667 16.0538 11.4667 16.196V16.2054C11.467 16.3431 11.445 16.48 11.4014 16.6107L11.4041 16.6014L11.716 16.2894C11.8505 16.1315 12.0196 16.007 12.2102 15.9256C12.4009 15.8442 12.6078 15.808 12.8147 15.82H12.8107C12.9383 15.8291 13.0577 15.8861 13.145 15.9796C13.2323 16.0731 13.281 16.1961 13.2814 16.324L13.2801 16.3547C13.149 16.9006 12.8677 17.3976 12.4681 17.792L12.3427 17.8547C12.2629 17.9665 12.2004 18.0896 12.1574 18.22L12.1547 18.2294C12.1547 18.2711 12.1965 18.292 12.2801 18.292C12.4521 18.2467 12.6 18.1587 12.7174 18.0414L13.784 17.104L14.7214 8.59869C13.428 9.05858 12.0648 9.29134 10.6921 9.28669H10.5867H10.5921C8.545 9.41239 6.49209 9.40972 4.44538 9.27869L4.58672 9.28535H4.48672C3.08458 9.28702 1.69279 9.0452 0.373383 8.57069L0.457383 8.59735L1.27072 16.4254ZM14.8427 8.04402H14.7801C14.7801 7.87691 14.3943 7.71024 13.6227 7.54402C12.6401 7.34779 11.6447 7.22302 10.6441 7.17069L10.5881 7.16802L11.2134 4.60802L14.7787 0.792021C14.904 0.708465 14.8001 0.520909 14.4667 0.229354C14.3681 0.121947 14.2386 0.0478582 14.096 0.0173539L14.0907 0.0160206C13.9654 -0.00442388 13.8818 0.00579834 13.84 0.0466872L10.0281 4.03735L9.21472 7.10135L7.58938 7.03735C5.8116 7.01787 4.0348 7.12928 2.27338 7.37069L2.46005 7.34935C1.04316 7.55735 0.334717 7.78669 0.334717 8.03735C0.334717 8.45424 1.58538 8.74624 4.08672 8.91335C6.47272 9.08255 8.86782 9.07943 11.2534 8.90402L11.0921 8.91335C13.5934 8.74802 14.8441 8.45646 14.8441 8.03869L14.8427 8.04402ZM10.4694 8.35602C10.4694 8.3978 10.3858 8.45024 10.2187 8.51335C10.0398 8.57672 9.85122 8.60875 9.66138 8.60802H9.62272H9.58672C9.38672 8.60802 9.19605 8.57335 9.01738 8.51069L9.02938 8.51469C8.86227 8.45247 8.77872 8.40002 8.77872 8.35735C8.77872 8.31469 8.84138 8.27291 8.96672 8.23202L8.90405 8.29469C8.90405 8.37824 9.13338 8.42002 9.59205 8.42002C10.0507 8.42002 10.2801 8.37824 10.2801 8.29469L10.3427 8.23202C10.4236 8.27113 10.4641 8.31113 10.4641 8.35202L10.4694 8.35602Z" fill="#353A40"/>
</g>
<defs>
<clipPath id="clip0_1_279">
<rect width="14.6667" height="32" fill="white" transform="translate(0.333374)"/>
</clipPath>
</defs>
</svg>
