<svg width="32" height="32" viewBox="0 0 32 32" fill="none" xmlns="http://www.w3.org/2000/svg">
<path d="M30.5067 13.88C29.1512 15.0125 27.402 15.5614 25.6425 15.4065C23.883 15.2515 22.2567 14.4053 21.12 13.0533C18.7467 10.2267 19.12 6 21.9333 3.66667L22.6133 3.16C21.5101 4.35618 20.8801 5.91304 20.8408 7.5398C20.8016 9.16656 21.3558 10.752 22.4 12C24.5733 14.5867 28.3333 15.0933 31.12 13.2933L30.5067 13.88ZM28.1333 19.3333C27.1294 20.1798 25.9683 20.8198 24.7164 21.2164C23.4646 21.613 22.1468 21.7585 20.8386 21.6445C19.5303 21.5306 18.2575 21.1594 17.0931 20.5522C15.9288 19.9451 14.8957 19.114 14.0533 18.1067C10.4933 13.88 11.0533 7.57333 15.28 4L16.5067 3.14667C14.9228 4.94082 14.0354 7.24388 14.0061 9.63697C13.9767 12.0301 14.8073 14.3542 16.3467 16.1867C19.5733 20 25.0667 20.84 29.2133 18.2933L28.1333 19.3333ZM26.6267 25.84C20.7067 30.8133 11.8667 30.04 6.89334 24.1067C1.93334 18.1867 2.70667 9.33333 8.62667 4.38667L10.1067 3.33333C5.42667 8.4 5.13334 16.3067 9.70667 21.76C14.28 27.2 22.12 28.2933 27.9467 24.5733L26.6267 25.84Z" fill="#353A40"/>
</svg>
