<svg width="44" height="44" viewBox="0 0 44 44" fill="none" xmlns="http://www.w3.org/2000/svg">
<circle cx="22" cy="22" r="22" fill="white"/>
<g clip-path="url(#clip0_2005_761)">
<path d="M9.49085 10.1442C8.52497 11.5364 7.09605 13.9778 6.40271 17.3297C5.82286 20.1331 5.97629 22.5155 6.20194 24.0749C7.71661 25.1771 8.95202 25.3997 9.78363 25.4083C11.7235 25.4281 13.9232 24.308 16.0268 24.2572C16.4619 24.2468 16.9101 24.2602 16.9101 24.2602C17.8246 24.2876 18.5866 24.3858 19.1389 24.478C18.6531 24.3413 10.9706 22.0518 9.38625 15.4203C8.8896 13.3414 9.14407 11.4717 9.49085 10.1442Z" fill="#EA9127"/>
<path d="M6.35986 25.0273C6.70798 26.6739 7.4865 29.2037 9.37662 31.7029C13.356 36.9654 19.2457 38.1037 20.7973 38.3541C20.5374 36.8775 20.3294 34.7647 20.6277 32.2605C20.9275 29.7438 21.6317 27.73 22.2344 26.3525C19.5139 24.9448 17.3809 24.7971 15.9131 24.9368C13.1524 25.1995 11.1628 26.6291 8.25572 25.8414C7.41257 25.613 6.76574 25.2722 6.35989 25.0273L6.35986 25.0273Z" fill="#EA9127"/>
<path d="M10.3979 32.9227C11.6723 32.8818 13.4679 32.6646 15.4427 31.8694C19.2351 30.3425 21.3665 27.6196 22.2348 26.3524C21.9193 27.0719 21.6241 27.8565 21.3699 28.7059C20.2386 32.485 20.4062 35.9159 20.7977 38.3541C18.2684 37.9124 14.7746 36.8585 11.69 34.1748C11.2182 33.7643 10.7888 33.3442 10.3979 32.9227Z" fill="#903518"/>
<path d="M9.49094 10.1442C8.75713 11.2013 7.92688 12.6175 7.2584 14.3885C6.25928 17.0353 6.02629 19.4018 6.00195 21.0227C6.40889 20.6111 6.81912 20.3521 7.17976 20.1843C10.0329 18.8559 13.4561 21.5138 13.7137 21.7194C12.926 21.1441 9.98438 18.8535 9.25891 14.806C8.90458 12.8294 9.20949 11.1628 9.49097 10.1443L9.49094 10.1442Z" fill="#F6D365"/>
<path d="M6.35989 25.0274C7.17031 25.9439 8.91877 27.6488 11.6743 28.4575C17.0843 30.0451 21.6436 26.7892 22.2343 26.3526C21.4858 27.4711 19.8013 29.661 16.8185 31.2292C14.1666 32.6235 11.7193 32.8793 10.3974 32.9227C9.6376 32.0944 8.69379 30.8972 7.87186 29.3051C7.02194 27.6588 6.59056 26.1486 6.35986 25.0274H6.35989Z" fill="#CC5520"/>
<path d="M19.8011 6C19.4875 6.56537 19.0755 7.47303 18.9058 8.65675C18.7744 9.57365 18.8313 10.3573 18.9174 10.9195C19.4983 10.7097 20.1409 10.5058 20.8414 10.3242C21.6033 10.1267 22.3192 9.98542 22.9748 9.88423C22.764 9.33797 22.4128 8.60453 21.8236 7.84579C21.1142 6.93221 20.3441 6.3479 19.8011 6H19.8011Z" fill="#EA9127"/>
<path d="M33.6786 6.48868C33.1499 6.77308 32.4029 7.25206 31.6731 8.02327C30.9313 8.80731 30.4914 9.59268 30.2378 10.1409C30.863 10.2834 31.5423 10.4671 32.2618 10.7058C32.9774 10.9432 33.6284 11.2003 34.2121 11.4583C34.3468 10.8794 34.4833 9.98447 34.3633 8.90239C34.2464 7.84669 33.9302 7.01999 33.6786 6.48868Z" fill="#EA9127"/>
<path d="M18.8797 11.7072C18.7916 12.6347 18.7585 13.7787 18.8899 15.0766C19.0299 16.4601 19.3183 17.6389 19.6133 18.5666C20.4019 16.7052 21.3779 15.5416 22.1639 14.8059C22.8809 14.1347 23.6744 13.6 23.9996 12.5334C24.2493 11.7141 24.1146 10.9356 23.9506 10.3866C23.2797 10.456 22.5291 10.5731 21.7203 10.7656C20.619 11.0278 19.6673 11.3684 18.8797 11.7072Z" fill="#E39334"/>
<path d="M24.6257 10.324C24.7314 10.6781 24.8586 11.2644 24.7921 11.9857C24.7668 12.2605 24.7049 12.8678 24.3595 13.5192C23.9232 14.3423 23.4608 14.4311 22.4055 15.6452C22.1348 15.9567 21.9291 16.2225 21.8027 16.3908C23.3388 17.1598 24.8747 17.9287 26.4108 18.6977C27.1543 18.304 30.5653 16.4021 31.1596 12.8558C31.2456 12.3438 31.2845 11.7272 31.2028 11.0191C30.2313 10.736 29.0282 10.4709 27.6349 10.3472C26.506 10.247 25.4907 10.2608 24.6256 10.3241L24.6257 10.324Z" fill="#F6D365"/>
<path d="M34.2421 12.1563C34.3028 12.6707 34.3384 13.2275 34.3335 13.8215C34.3162 16.0057 33.7616 17.8168 33.2139 19.107C33.2113 19.0042 33.1616 17.8122 32.1135 17.1322C31.1142 16.4836 30.0576 16.8535 29.9448 16.8952C30.3664 16.4246 30.9156 15.6988 31.3333 14.7037C31.9441 13.2489 31.9698 11.9427 31.9279 11.2096C32.6994 11.5252 33.4706 11.8408 34.2421 12.1564V12.1563Z" fill="#EA9127"/>
<path d="M19.7896 19.2851C20.8637 21.2355 21.9378 23.1859 23.012 25.1363C23.7134 25.4061 24.7857 25.7261 26.1257 25.7816C27.5393 25.8402 28.6867 25.5809 29.4227 25.3538C30.623 23.4749 31.8229 21.596 33.0232 19.7171C32.6323 19.8226 32.1196 19.9408 31.5119 20.0276C30.9994 20.1009 30.3716 20.1586 29.5476 20.1549C27.9083 20.1476 27.8227 19.9074 26.2951 19.8567C24.9201 19.8111 24.9132 20.0031 23.3513 19.9267C22.4211 19.8812 21.7205 19.7787 21.0923 19.642C20.5613 19.5265 20.1187 19.3944 19.7896 19.2851L19.7896 19.2851Z" fill="#F6D365"/>
<path d="M22.9911 26.3202C23.895 27.4033 24.7988 28.4864 25.7027 29.5696C24.8648 30.7535 23.9441 32.2483 23.1127 34.0549C22.3482 35.7164 21.8353 37.2585 21.4848 38.5771C21.1194 36.2946 20.9308 32.9975 21.9391 29.2923C22.2382 28.1935 22.6035 27.2018 22.9911 26.3202L22.9911 26.3202Z" fill="#F6D365"/>
<path d="M28.7543 27.0197C27.6095 28.2049 26.246 29.8396 24.9984 31.9683C23.5632 34.4165 22.7621 36.6978 22.2983 38.4299C24.0017 38.7135 25.4004 38.6819 26.3604 38.5979C27.9412 38.4594 28.588 38.1571 29.0545 37.8243C29.253 37.6827 29.8638 37.2471 30.2081 36.5344C30.9485 35.0018 29.7881 33.5735 29.1426 30.6456C28.9582 29.8098 28.7555 28.5774 28.7543 27.0197H28.7543Z" fill="#903518"/>
<path d="M25.6885 19.4502C25.2943 19.1882 24.7579 18.8458 24.103 18.4682C23.752 18.2659 23.4762 18.1164 23.1754 17.9537C22.7313 17.7135 22.1506 17.4068 21.4578 17.061C21.362 17.2525 21.204 17.6322 21.2066 18.1331C21.2088 18.5725 21.3336 18.912 21.4196 19.1008C21.9547 19.0809 22.5359 19.0831 23.1565 19.1197C24.0974 19.1753 24.9467 19.2995 25.6885 19.4502L25.6885 19.4502Z" fill="#532322"/>
<path d="M27.021 19.4963C27.7744 19.0684 28.6009 18.6379 29.5002 18.2229C30.148 17.9239 30.7763 17.6593 31.3794 17.4249C31.4623 17.6226 31.6035 18.0349 31.5463 18.56C31.5017 18.9701 31.355 19.2783 31.254 19.454C30.72 19.3933 30.1344 19.3521 29.504 19.345C28.583 19.3345 27.7489 19.3989 27.021 19.4963Z" fill="#532322"/>
<path d="M23.8398 26.1578C24.4474 26.3129 25.2286 26.4561 26.1434 26.4873C27.0692 26.5189 27.8665 26.4269 28.4875 26.3113C27.6777 27.1731 26.8679 28.0349 26.0582 28.8967C25.3187 27.9838 24.5792 27.0708 23.8398 26.1578Z" fill="#532322"/>
<path d="M27.0044 19.5001C27.4165 19.2672 27.9762 18.9641 28.6566 18.6346C29.0212 18.4579 29.3073 18.3286 29.6188 18.1879C30.0793 17.9801 30.6805 17.716 31.3964 17.4208C31.4783 17.6186 31.6086 18.0087 31.5697 18.5081C31.5357 18.9462 31.3869 19.2759 31.2875 19.458C30.7552 19.3998 30.1753 19.3602 29.5537 19.3522C28.6112 19.3402 27.7552 19.4031 27.0044 19.5001L27.0044 19.5001Z" fill="#532322"/>
<path d="M19.6129 18.5666C19.1816 17.116 18.8292 15.3283 18.8099 13.2786C18.8047 12.7272 18.8241 12.1997 18.8615 11.6986C19.6312 11.374 20.5524 11.0485 21.612 10.7917C22.4625 10.5856 23.25 10.4607 23.9502 10.3866C23.8051 10.698 23.5547 11.1764 23.1546 11.6923C21.9966 13.1853 20.8519 13.358 20.1022 14.2373C19.5453 14.8906 19.0618 16.1036 19.6129 18.5666L19.6129 18.5666Z" fill="#CC5520"/>
<path d="M30.0315 15.5783C29.3648 15.4276 28.2275 15.0746 27.1098 14.1811C25.3718 12.7918 24.8013 10.9911 24.6255 10.324C25.5259 10.2581 26.6004 10.2452 27.8035 10.363C29.1282 10.4927 30.2736 10.7482 31.2026 11.019C31.2572 11.5003 31.2763 12.1347 31.1535 12.8613C30.9392 14.1295 30.3972 15.0562 30.0315 15.5783V15.5783Z" fill="#CC5520"/>
<path d="M31.9276 11.2094C32.6988 11.525 33.4703 11.8406 34.2418 12.1562C34.3311 12.9334 34.3723 13.8765 34.2755 14.9392C34.1161 16.6933 33.641 18.1137 33.2133 19.1068C33.342 18.7598 34.3347 15.9572 32.7972 14.0129C32.577 13.7343 32.2605 13.4175 31.8037 13.1337C31.8434 12.9221 31.8774 12.6945 31.9016 12.452C31.9469 11.9944 31.9484 11.5764 31.9276 11.2094V11.2094Z" fill="#CC5520"/>
<path d="M30.2378 10.1409C30.4832 9.61128 30.8844 8.89787 31.5318 8.17677C32.3048 7.3158 33.1162 6.79185 33.6786 6.48868C33.917 6.99344 34.1856 7.70417 34.3211 8.58581C34.5078 9.8034 34.3594 10.8188 34.2121 11.4582C34.1238 10.5944 33.5668 9.85135 32.7722 9.54088C31.9002 9.20036 30.8893 9.43773 30.2378 10.1409Z" fill="#CC5520"/>
<path d="M18.9178 10.9195C18.8307 10.3503 18.7715 9.54093 18.9161 8.59056C19.0914 7.43781 19.4941 6.55376 19.8016 6C20.2859 6.31022 20.9056 6.77941 21.5076 7.46328C22.3 8.36353 22.7358 9.26544 22.9753 9.88423C22.3729 9.08468 21.3363 8.75723 20.4245 9.06498C19.6224 9.33569 19.0374 10.0573 18.9179 10.9195H18.9178Z" fill="#CC5520"/>
<path d="M24.8366 33.6838C23.2924 35.5192 22.6086 37.3615 22.2983 38.4302C23.1223 36.9706 25.4507 33.2959 29.0349 32.9741C29.2837 32.9518 29.5422 32.9454 29.8105 32.9579C29.6349 32.4661 29.4668 31.9321 29.3161 31.3577C29.2265 31.0164 29.1495 30.6853 29.0836 30.3659C28.082 30.8562 26.3813 31.8476 24.8366 33.6838Z" fill="#CC5520"/>
<path d="M21.7583 30.007C21.3459 31.8457 21.0657 34.1175 21.2606 36.6911C21.3107 37.3517 21.3881 37.9809 21.485 38.5771C21.639 38.0254 21.8143 37.4523 22.014 36.8611C22.2866 36.0549 22.5756 35.3013 22.8699 34.6019C22.4994 33.0701 22.1288 31.5385 21.7583 30.0069V30.007Z" fill="#CC5520"/>
<path d="M23.012 25.1363C21.9378 23.1859 20.8637 21.2355 19.7896 19.2851C20.3369 20.2884 20.9731 20.8447 21.4254 21.1587C24.2341 23.1082 28.4183 21.5888 30.5895 20.7979C31.6841 20.3991 32.5288 19.9803 33.018 19.7222C31.8196 21.5994 30.6212 23.4766 29.4227 25.3538C28.7014 25.5764 27.591 25.8278 26.2243 25.785C24.8321 25.7414 23.7225 25.4096 23.0119 25.1363H23.012Z" fill="#EA9127"/>
<path d="M24.6256 10.324C24.7462 10.7077 24.8966 11.3719 24.7828 12.1818C24.7449 12.4511 24.6732 13.0684 24.2618 13.6903C23.9396 14.1774 23.6906 14.3341 23.1039 14.9077C22.7651 15.2389 22.3022 15.7285 21.8027 16.3908C22.3662 16.6083 23.0259 16.8053 23.7736 16.9279C26.3062 17.3431 28.4177 16.6707 29.5628 16.1933C29.7191 15.9883 29.8754 15.7833 30.0317 15.5782C28.9524 14.9808 27.515 14.0094 26.174 12.4745C25.5178 11.7237 25.0132 10.9849 24.6256 10.324L24.6256 10.324Z" fill="#EA9127"/>
<path d="M24.7946 29.8834C23.5299 30.6765 22.0119 30.1065 21.7583 30.0069C21.7478 30.5721 21.7483 31.1524 21.7617 31.7471C21.8 33.4459 21.938 35.036 22.1371 36.5039C22.6698 34.9697 23.4187 33.2407 24.4867 31.4413C24.8859 30.7687 25.2947 30.1453 25.7029 29.5695C25.6233 29.4741 25.5437 29.3787 25.4641 29.2833C25.2955 29.4936 25.0768 29.7064 24.7946 29.8834Z" fill="#EA9127"/>
<path d="M22.2983 38.4299C22.6499 37.3129 23.392 35.4534 24.9804 33.6072C26.4655 31.8809 28.0653 30.8925 29.0836 30.3658C28.9543 29.7162 28.849 28.9906 28.7946 28.1983C28.7663 27.7869 28.7542 27.3934 28.7543 27.0197C27.7486 28.061 26.6403 29.3801 25.5903 31.0066C23.7954 33.7875 22.8347 36.4394 22.2983 38.4299Z" fill="#EA9127"/>
<path d="M19.8116 6C19.6392 6.29553 19.4613 6.64893 19.3053 7.05905C19.0521 7.72443 18.9357 8.33066 18.8818 8.81137C18.9077 8.66908 19.0504 7.96449 19.6618 7.60302C20.359 7.19087 21.3904 7.38772 22.0727 8.16286C21.7401 7.70198 21.2867 7.1681 20.6797 6.65033C20.3805 6.39504 20.087 6.18033 19.8115 6H19.8116Z" fill="#903518"/>
<path d="M33.6784 6.48868C33.8336 6.79045 33.9923 7.15651 34.1215 7.58351C34.334 8.28614 34.394 8.9139 34.4004 9.39145C34.3898 9.26729 34.3126 8.49828 33.6902 8.07602C33.0207 7.62178 31.9886 7.75037 31.2769 8.47117C31.6144 8.05729 32.0785 7.57179 32.697 7.11193C33.0408 6.85636 33.374 6.6521 33.6784 6.48868Z" fill="#903518"/>
<path d="M29.4226 25.3537C30.3221 23.945 31.2213 22.5362 32.1208 21.1274C31.3243 21.9987 29.6953 23.5372 27.1479 24.4391C25.496 25.024 24.0244 25.1407 23.0117 25.1362C23.7672 25.4249 24.9653 25.7773 26.4662 25.7875C27.7017 25.7959 28.7189 25.5696 29.4226 25.3537Z" fill="#CC5520"/>
</g>
<defs>
<clipPath id="clip0_2005_761">
<rect width="29" height="33" fill="white" transform="translate(6 6)"/>
</clipPath>
</defs>
</svg>
