<svg width="33" height="32" viewBox="0 0 33 32" fill="none" xmlns="http://www.w3.org/2000/svg">
<g clip-path="url(#clip0_1_284)">
<path d="M11.7147 14.104L12.3974 2.56135C12.4028 2.47103 12.4381 2.38508 12.4977 2.31701C12.5573 2.24895 12.6379 2.20263 12.7267 2.18535L23.836 0.00801307C23.9047 -0.00546068 23.9756 -0.00107578 24.042 0.020747C24.1084 0.0425698 24.1681 0.0810982 24.2154 0.132635C24.2626 0.184172 24.2959 0.246988 24.3118 0.315056C24.3278 0.383124 24.3261 0.45416 24.3067 0.521346L22.2294 7.72535C22.2101 7.79241 22.2083 7.86329 22.2243 7.93122C22.2402 7.99915 22.2733 8.06186 22.3204 8.11336C22.3675 8.16485 22.427 8.20341 22.4932 8.22536C22.5594 8.2473 22.6302 8.25188 22.6987 8.23868L25.8827 7.62535C25.9576 7.6107 26.0352 7.61736 26.1065 7.64457C26.1778 7.67179 26.24 7.71847 26.2862 7.7793C26.3323 7.84014 26.3604 7.91269 26.3673 7.98871C26.3743 8.06473 26.3597 8.14117 26.3254 8.20935L17.272 26.276L17.108 26.5293C17.0728 26.5867 17.0233 26.634 16.9645 26.6667C16.9056 26.6994 16.8394 26.7164 16.772 26.716C16.536 26.716 16.3054 26.5133 16.3654 26.224L17.8254 19.156C17.8397 19.0868 17.8358 19.015 17.814 18.9477C17.7923 18.8805 17.7534 18.82 17.7013 18.7723C17.6491 18.7246 17.5854 18.6912 17.5165 18.6755C17.4476 18.6598 17.3757 18.6623 17.308 18.6827L15.3974 19.2627C15.3297 19.2833 15.2579 19.286 15.1889 19.2705C15.1199 19.2549 15.0561 19.2218 15.0038 19.1742C14.9515 19.1266 14.9125 19.0662 14.8906 18.999C14.8686 18.9317 14.8645 18.86 14.8787 18.7907L15.7987 14.2907C15.8127 14.2235 15.8094 14.1539 15.7893 14.0883C15.7692 14.0227 15.7329 13.9632 15.6837 13.9153C15.6346 13.8675 15.5741 13.8328 15.508 13.8145C15.4418 13.7962 15.3722 13.7949 15.3054 13.8107L12.212 14.5253C12.1503 14.5395 12.0861 14.5391 12.0246 14.5242C11.963 14.5093 11.9058 14.4802 11.8574 14.4394C11.809 14.3985 11.7708 14.3469 11.7458 14.2887C11.7208 14.2305 11.7097 14.1673 11.7134 14.104H11.7147ZM31.6827 3.53601L23.712 4.98668L22.9867 7.50268L25.756 6.96935C25.9706 6.92657 26.1932 6.95083 26.3936 7.03884C26.5939 7.12685 26.7624 7.27436 26.876 7.46135C26.9725 7.61686 27.0274 7.79458 27.0353 7.97742C27.0432 8.16025 27.004 8.34206 26.9214 8.50535L17.8667 26.5733L17.8494 26.6067L17.8294 26.6373L17.6667 26.8907C17.5706 27.0413 17.4381 27.1654 17.2816 27.2516C17.1251 27.3378 16.9494 27.3833 16.7707 27.384C16.6089 27.3831 16.4492 27.3466 16.3031 27.277C16.157 27.2074 16.028 27.1065 15.9254 26.9813C15.8255 26.8577 15.7545 26.7134 15.7176 26.5588C15.6807 26.4043 15.6788 26.2434 15.712 26.088L17.084 19.4467L15.5907 19.9C15.3864 19.9615 15.1685 19.9612 14.9645 19.899C14.7604 19.8369 14.5793 19.7156 14.444 19.5507C14.3432 19.4275 14.2711 19.2834 14.2331 19.1289C14.195 18.9743 14.1919 18.8132 14.224 18.6573L15.064 14.5507L12.3614 15.1747C12.1784 15.2166 11.9877 15.21 11.8081 15.1555C11.6285 15.101 11.4662 15.0005 11.3374 14.864C11.2375 14.7572 11.1604 14.6312 11.1106 14.4937C11.0609 14.3562 11.0396 14.21 11.048 14.064L11.5667 5.30401L1.64671 3.53068C1.49387 3.5031 1.33633 3.51971 1.1926 3.57856C1.04887 3.63741 0.924918 3.73605 0.835309 3.8629C0.745699 3.98976 0.694153 4.13955 0.686725 4.29468C0.679297 4.44981 0.716296 4.60385 0.793374 4.73868L16.1067 31.588C16.1782 31.7137 16.2819 31.8181 16.407 31.8905C16.5322 31.963 16.6743 32.0009 16.8189 32.0003C16.9635 31.9998 17.1054 31.9608 17.23 31.8875C17.3546 31.8141 17.4575 31.7089 17.528 31.5827L32.5414 4.73601C32.6166 4.60094 32.652 4.44726 32.6432 4.29288C32.6345 4.1385 32.5821 3.98978 32.4921 3.86403C32.4022 3.73828 32.2783 3.64069 32.135 3.58261C31.9917 3.52454 31.8348 3.50838 31.6827 3.53601Z" fill="#353A40"/>
</g>
<defs>
<clipPath id="clip0_1_284">
<rect width="32" height="32" fill="white" transform="translate(0.666748)"/>
</clipPath>
</defs>
</svg>
