<svg width="33" height="32" viewBox="0 0 33 32" fill="none" xmlns="http://www.w3.org/2000/svg">
<g clip-path="url(#clip0_1_277)">
<path d="M27.0004 0H5.66735C4.25433 0.00448288 2.90046 0.56779 1.9013 1.56695C0.902141 2.56611 0.338833 3.91998 0.334351 5.333V26.666C0.334351 29.598 2.73535 31.999 5.66735 31.999H27.0004C29.9324 31.999 32.3334 29.598 32.3334 26.666V5.333C32.3334 2.401 29.9324 0 27.0004 0ZM24.0834 22.474C23.817 23.1164 23.3946 23.6821 22.8544 24.12C22.2914 24.573 21.5834 24.948 20.7084 25.214C19.8384 25.485 18.8024 25.62 17.5994 25.62H9.02635V6.953H18.0944C19.7714 6.953 21.1154 7.328 22.1204 8.099C23.1364 8.87 23.6364 10.026 23.6364 11.578C23.6364 12.521 23.4074 13.323 22.9484 13.989C22.4894 14.655 21.8284 15.171 20.9744 15.531V15.594C22.1154 15.834 22.9954 16.375 23.5734 17.214C24.1514 18.053 24.4534 19.115 24.4534 20.396C24.4541 21.0944 24.3179 21.7861 24.0524 22.432L24.0834 22.468V22.474ZM20.3804 17.875C19.8384 17.375 19.0674 17.13 18.0784 17.13H12.3124V22.953H18.0934C19.0774 22.953 19.8533 22.698 20.4004 22.182C20.9474 21.666 21.2234 20.932 21.2234 19.994C21.2134 19.072 20.9474 18.359 20.4004 17.874H20.3744L20.3804 17.875ZM19.5834 14.109C20.1094 13.661 20.3694 13.02 20.3694 12.182C20.3694 11.244 20.1354 10.578 19.6614 10.198C19.1924 9.818 18.5154 9.62 17.6254 9.62H12.2923V14.771H17.6254C18.4014 14.771 19.0684 14.542 19.5784 14.11L19.5834 14.109Z" fill="#353A40"/>
</g>
<defs>
<clipPath id="clip0_1_277">
<rect width="32" height="32" fill="white" transform="translate(0.333374)"/>
</clipPath>
</defs>
</svg>
