<svg width="32" height="32" viewBox="0 0 32 32" fill="none" xmlns="http://www.w3.org/2000/svg">
<path d="M15.6223 2.66669C8.43315 2.66669 2.60352 8.78726 2.60352 16.3376C2.60352 22.3778 6.33378 27.5023 11.5066 29.3099C12.1572 29.4365 12.3961 29.0133 12.3961 28.6522C12.3961 28.3263 12.3839 27.2494 12.3784 26.1071C8.75659 26.934 7.99235 24.4941 7.99235 24.4941C7.4001 22.9139 6.54676 22.4936 6.54676 22.4936C5.36562 21.6452 6.63586 21.6627 6.63586 21.6627C7.94312 21.759 8.63149 23.0714 8.63149 23.0714C9.79269 25.1614 11.6772 24.5572 12.42 24.2078C12.5369 23.3244 12.8743 22.7211 13.2466 22.3798C10.3549 22.0342 7.31517 20.8619 7.31517 15.6236C7.31517 14.1311 7.82372 12.9115 8.65651 11.9541C8.52134 11.6097 8.07575 10.2194 8.78262 8.33623C8.78262 8.33623 9.87589 7.96883 12.3638 9.7376C13.4022 9.4347 14.5159 9.28283 15.6223 9.27759C16.7287 9.28283 17.8433 9.43459 18.8837 9.7376C21.3686 7.96893 22.4603 8.33634 22.4603 8.33634C23.1689 10.2193 22.7231 11.6099 22.588 11.9541C23.4227 12.9115 23.9278 14.1311 23.9278 15.6236C23.9278 20.8744 20.8822 22.0305 17.9832 22.369C18.4501 22.7932 18.8662 23.6252 18.8662 24.9007C18.8662 26.7298 18.8512 28.202 18.8512 28.6522C18.8512 29.0161 19.0855 29.4424 19.7454 29.308C24.9154 27.4984 28.6409 22.3758 28.6409 16.3377C28.6409 8.78726 22.8121 2.66669 15.6223 2.66669ZM7.47953 22.1412C7.45085 22.2091 7.34904 22.2295 7.25638 22.1828C7.1619 22.1383 7.10891 22.0457 7.13942 21.9776C7.16749 21.9076 7.2695 21.8881 7.36369 21.935C7.45828 21.9796 7.51218 22.073 7.47953 22.1412ZM8.11989 22.7412C8.05785 22.8017 7.93641 22.7736 7.85402 22.6781C7.76889 22.5828 7.75293 22.4553 7.81588 22.394C7.87996 22.3335 7.99764 22.3618 8.08297 22.4571C8.1682 22.5536 8.18468 22.6801 8.11989 22.7412ZM8.55927 23.5089C8.47943 23.5671 8.34904 23.5125 8.26839 23.391C8.18865 23.2695 8.18865 23.1237 8.27011 23.0653C8.35097 23.0068 8.47943 23.0594 8.5611 23.1801C8.64064 23.3036 8.64064 23.4494 8.55917 23.509M9.30205 24.3982C9.23075 24.4808 9.0787 24.4586 8.96743 24.3458C8.85362 24.2356 8.82199 24.0792 8.89359 23.9966C8.9658 23.9137 9.11867 23.937 9.23075 24.0489C9.34365 24.1589 9.37823 24.3165 9.30205 24.3982ZM10.2624 24.6983C10.2309 24.8054 10.0844 24.8541 9.93702 24.8086C9.78974 24.7617 9.69343 24.6363 9.72313 24.5281C9.75374 24.4203 9.90081 24.3696 10.0493 24.4183C10.1964 24.4649 10.293 24.5894 10.2624 24.6984M11.3551 24.8258C11.3588 24.9385 11.2338 25.0319 11.079 25.0341C10.9234 25.0377 10.7974 24.9465 10.7956 24.8354C10.7956 24.7217 10.9179 24.6291 11.0736 24.6263C11.2284 24.6231 11.3551 24.7137 11.3551 24.8258ZM12.4287 24.7825C12.4472 24.8925 12.3397 25.0055 12.1859 25.0357C12.0349 25.0646 11.8949 24.9967 11.8757 24.8876C11.857 24.7748 11.9665 24.6619 12.1173 24.6327C12.2713 24.6046 12.409 24.6707 12.4287 24.7825Z" fill="white"/>
</svg>
