<svg width="32" height="32" viewBox="0 0 32 32" fill="none" xmlns="http://www.w3.org/2000/svg">
<path d="M25.3878 25.3883H21.4366V19.2005C21.4366 17.725 21.4103 15.8255 19.3816 15.8255C17.3237 15.8255 17.0088 17.4332 17.0088 19.0931V25.3879H13.0578V12.6633H16.8508V14.4023H16.9039C17.2835 13.7532 17.832 13.2193 18.4911 12.8573C19.1501 12.4953 19.895 12.3189 20.6464 12.3467C24.6511 12.3467 25.3894 14.9809 25.3894 18.4078L25.3878 25.3883ZM8.59942 10.924C7.33307 10.9242 6.3063 9.89779 6.30609 8.63144C6.30588 7.36508 7.33223 6.33831 8.59859 6.33811C9.86494 6.33779 10.8917 7.36425 10.8919 8.6306C10.892 9.23873 10.6506 9.822 10.2206 10.2521C9.79072 10.6822 9.20755 10.9239 8.59942 10.924ZM10.575 25.3884H6.61973V12.6633H10.5749L10.575 25.3884ZM27.3575 2.66863H4.63432C3.56036 2.65654 2.67963 3.51686 2.6665 4.59081V27.4088C2.67921 28.4833 3.55984 29.3444 4.63421 29.3332H27.3575C28.4342 29.3465 29.3183 28.4854 29.3332 27.4088V4.58904C29.3179 3.513 28.4337 2.65279 27.3575 2.66686" fill="white"/>
</svg>
